/* XPM */
static char *result[] = {
/* columns rows colors chars-per-pixel */
"16 16 111 2 ",
"   c #0D29DB",
".  c #0E28DA",
"X  c #0D2BDD",
"o  c #0C2CDE",
"O  c #0C2EE0",
"+  c #0B30E1",
"@  c #0B31E2",
"#  c #0B31E3",
"$  c #0C35E2",
"%  c #0A33E4",
"&  c #0A33E5",
"*  c #0A34E5",
"=  c #0935E6",
"-  c #0936E7",
";  c #0A3EE4",
":  c #073BEB",
">  c #073DED",
",  c #063EEE",
"<  c #0838E8",
"1  c #0838E9",
"2  c #0839EA",
"3  c #0541F1",
"4  c #0640F0",
"5  c #0543F3",
"6  c #0445F4",
"7  c #0446F5",
"8  c #0348F6",
"9  c #0348F7",
"0  c #024AF8",
"q  c #024BFA",
"w  c #014DFB",
"e  c #024CFB",
"r  c #014EFD",
"t  c #0050FE",
"y  c #0052FF",
"u  c #0055FF",
"i  c #0056FF",
"p  c #0057FF",
"a  c #005DFF",
"s  c #0067FF",
"d  c #0071FF",
"f  c #0076FF",
"g  c #0079FF",
"h  c #007AFF",
"j  c #007BFF",
"k  c #007DFF",
"l  c #007FFF",
"z  c #0081FF",
"x  c #0083FF",
"c  c #0085FF",
"v  c #0087FF",
"b  c #0088FF",
"n  c #0089FF",
"m  c #008AFF",
"M  c #008CFF",
"N  c #008DFF",
"B  c #008FFF",
"V  c #0090FF",
"C  c #0096FF",
"Z  c #009AFF",
"A  c #009DFF",
"S  c #04A0FB",
"D  c #00A2FF",
"F  c #00A5FF",
"G  c #01A6FE",
"H  c #00A6FF",
"J  c #00A9FF",
"K  c #00ACFF",
"L  c #00ADFF",
"P  c #00AFFF",
"I  c #00B0FF",
"U  c #00B1FF",
"Y  c #00B2FF",
"T  c #00B3FF",
"R  c #00B4FF",
"E  c #00B5FF",
"W  c #00B6FF",
"Q  c #00B7FF",
"!  c #00B8FF",
"~  c #00B9FF",
"^  c #00BAFF",
"/  c #00BBFF",
"(  c #00BCFF",
")  c #00BDFF",
"_  c #00BEFF",
"`  c DeepSkyBlue",
"'  c #13CEEE",
"]  c #15CFEC",
"[  c #14CFED",
"{  c #1BD2E7",
"}  c #1ED3E5",
"|  c #1CD3E6",
" . c #1DD4E5",
".. c #17D0EB",
"X. c #19D1E9",
"o. c #18D1EA",
"O. c #0CC2F5",
"+. c #0BC7F5",
"@. c #05C7FB",
"#. c #00C0FF",
"$. c #00C1FF",
"%. c #00C2FF",
"&. c #00C3FF",
"*. c #04C0FC",
"=. c #00C4FF",
"-. c #11CDF0",
";. c #11CCF1",
":. c #22D6E1",
">. c #21D5E2",
",. c #20D5E3",
"<. c None",
/* pixels */
"* 2 , 5 9 w s T E Q ^ ( _ #.%.=.",
"% < > 3 7 q t M E Q ~ / ) ` $.&.",
"@ - : 4 6 0 r u L Q ~ / *.+.;.-.",
"+ * 2 , 5 9 w y b W O.} ,.{ ..' ",
"O % < > <.<.<.<.<.<.<.<.>.| o.[ ",
"o # - : <.<.<.<.<.<.<.<.:. .X.] ",
"X + = 2 <.<.<.<.<.<.<.<.<.<.<.<.",
"  O % 1 <.<.<.<.<.<.<.<.<.<.<.<.",
". o & 8 <.<.<.<.<.<.<.<.<.<.<.<.",
"; $ e i <.<.<.<.<.<.<.<.<.<.<.<.",
"d d p a <.<.<.<.<.<.<.<.Y T E W ",
"m U H V <.<.<.<.<.<.<.<.I U T E ",
"I Y E ! ^ Z M n c z k B L I U T ",
"U R W ~ ( ( Z v x l j N J L P U ",
"Y E ! ^ ) #.%.G z k g C H J K P ",
"R W ~ ( _ $.=.@.S h f A D F J K "
};
