/* XPM */
static char *result[] = {
/* columns rows colors chars-per-pixel */
"64 64 43 1 ",
"  c #0E27D9",
". c #0D2BDD",
"X c #0B2FE0",
"o c #0A33E4",
"O c #0937E8",
"+ c #073DED",
"@ c #0839EA",
"# c #0940E5",
"$ c #0751ED",
"% c #065AEF",
"& c #0544F3",
"* c #0348F7",
"= c #024CFA",
"- c #0053FF",
"; c #005BFF",
": c #0362F6",
"> c #0063FF",
", c #006DFF",
"< c #0075FF",
"1 c #007BFF",
"2 c #0083FF",
"3 c #008AFF",
"4 c #0093FF",
"5 c #009DFF",
"6 c #00A4FF",
"7 c #00ACFF",
"8 c #0AB4F6",
"9 c #0ABCF6",
"0 c #00B4FF",
"q c #00BBFF",
"w c #14CEED",
"e c #1DD3E5",
"r c #17D0EB",
"t c #19D1E9",
"y c #0BC5F5",
"u c #0CCAF4",
"i c #01C3FE",
"p c #07C8F9",
"a c #08C8F8",
"s c #10C7F1",
"d c #11CDF0",
"f c #21D5E2",
"g c None",
/* pixels */
"oOOO@++++&&&&&&&***===-=-30000000q0q00q0qqqqqqqiqqiqiiqiiiiiiiii",
"ooO@O+@++++&&&&***=====---5000000000qqqqq0qqqqqqqiqiqiiiqiiiiiii",
"oooO@@@+++&+&&&****=====--;70000000q000qqqqqqqqqiqqiqiqiiiiipipi",
"ooOOOO+++&+&&&&&***====-==-,00000qq0qq0qq0qqqqqqqqiqiqiiiiiiiiip",
"ooOOO@@+++&+&&&&&***===-----300000000qq00qqqqqqqqqqiqiiiiiiiiiip",
"oOo@O@@++++&&&&&***=====-==--50000qqq0qqqqqqqqiqqiiqiqqiiiiiiipi",
"ooooOO@@+++++&&&&***===-=---->000q00q00qq0qqqqqqqqiiqqiiiiiiiiii",
"ooooOO@+@++&+&&&&****===-=---;3000q000q0q0qqqqqqqiqqiiiqiiiiiipp",
"XooOo@@+++++&+&&*&=*======----;70q000q00qqqqqqqqqiqiiqqiiipauddd",
"oooOOo@@@++&+&&&&&****==--=----<000q0qqqq00qqqqqqqqqqiadwwwwwddu",
".oooo@@@@@+++&&&&*&========-----5000q00qqqqqqqqqqiydreerrwrwdddd",
"XoooOoo@@+++++&+&&&&&=*==------;>00q00q000qqqqisreeeerrrrrwwwddd",
"oooo@o@@O+++++&&&&&***===-=------3000qqqqqqqseffffeerererrrwwwdd",
".o.oooO@@O++&++&&&&***====-=-----;00000q0seffffffeeeeerrrrwrwddd",
".XoooOOO@@@++&ggggggggggggggggggggggggggggggggggggeeerrerrwwwwdd",
"oo.ooooOO++O++ggggggggggggggggggggggggggggggggggggeeeeerrrrwwwdd",
".Xoooooo@@@+++ggggggggggggggggggggggggggggggggggggfeettrtrrrwrdd",
"o..oooOoO@@+++ggggggggggggggggggggggggggggggggggggfeeeerrrrrwddd",
".XooooOOO@@@++ggggggggggggggggggggggggggggggggggggeeeeeeeerrrwru",
".X.oXooOO@@+++ggggggggggggggggggggggggggggggggggggefeerrrrrrdwww",
"..XXoooOo@@@@+ggggggggggggggggggggggggggggggggggggffeererrrrrdwd",
".X.o.ooOOO@@++ggggggggggggggggggggggggggggggggggggfeeeeeerrrrrrd",
"X.o.ooooo@@@O+ggggggggggggggggggggggggggggggggggggffeeeetrrrrwwd",
"...X.XoooOO@O+ggggggggggggggggggggggggggggggggggggfeeeerterrrrww",
".XXoo.ooOOOOO+ggggggggggggggggggggggggggggggggggggfffeertrtrrrrw",
"....XXooooOOO+gggggggggggggggggggggggggggggggggggggggggggggggggg",
"....XoXooOOO@@gggggggggggggggggggggggggggggggggggggggggggggggggg",
"...o.oXoooOO@Ogggggggggggggggggggggggggggggggggggggggggggggggggg",
" ...o.oooooOO@gggggggggggggggggggggggggggggggggggggggggggggggggg",
".....oXXooOoO@gggggggggggggggggggggggggggggggggggggggggggggggggg",
" ....XoooooOO@gggggggggggggggggggggggggggggggggggggggggggggggggg",
" . .XX.ooooOOOgggggggggggggggggggggggggggggggggggggggggggggggggg",
"  ...XXoooooo&gggggggggggggggggggggggggggggggggggggggggggggggggg",
"  ....XXoooO&-gggggggggggggggggggggggggggggggggggggggggggggggggg",
" . ..XXXoooO--gggggggggggggggggggggggggggggggggggggggggggggggggg",
"  ....XX.oo---gggggggggggggggggggggggggggggggggggggggggggggggggg",
"   ....XXo---;gggggggggggggggggggggggggggggggggggggggggggggggggg",
"   ....Xo=--;;gggggggggggggggggggggggggggggggggggggggggggggggggg",
"<:$#...X=-;;;;gggggggggggggggggggggggggggggggggggggggggggggggggg",
"<<112<%*;--;;;gggggggggggggggggggggggggggggggggggg00000000q00q0q",
",<1122>--;;;;>gggggggggggggggggggggggggggggggggggg70000000q000q0",
"<<<12,;-;;;;;>gggggggggggggggggggggggggggggggggggg0000000q00q00q",
",<<<35,;;;;>>>gggggggggggggggggggggggggggggggggggg00000700000q0q",
",<<27705<;>>>>gggggggggggggggggggggggggggggggggggg70070000000000",
",<<7000006<>>>gggggggggggggggggggggggggggggggggggg0000700000000q",
",<77707000q6<,gggggggggggggggggggggggggggggggggggg07070000000000",
"<670000000q0q6gggggggggggggggggggggggggggggggggggg70000070000000",
"5700700000000qgggggggggggggggggggggggggggggggggggg77707700000000",
"770000000000qqgggggggggggggggggggggggggggggggggggg07070007000000",
"0007000000q0q0ggggggggggggggggggggggggggggggggggg770700700007000",
"07000000qq0q0qqqqqqq633433333232322121111111<<377777070770770000",
"0070000000q0q0qqqqiqqq4333332323222212211111<<567777777007007070",
"7070000q00q0q0qqqqqqqqq63332322222211211111<<<677777770707070007",
"00000000qq0qqqqqqiqiiiii03333222211221111<1<<<766767777770707000",
"700000qq0q0qqqqqqqqqqiqiii53222221211111<1<1<3666767777770700770",
"000000000qq0qqqqqqiiqiiiiii622222221211111<<<3667677777777707070",
"00000000q0qqqqqqqiqiqiqiiiii022221211111<1<<<5667667677777707070",
"000qq0q00q0qqqqqqqiqiiiiiiiipq321212111<1<<<<5666666776777770707",
"000000qqqqqqqqqqqiiqqiiiiiipiaq32211211<<<<<16666667677777777070",
"00000q00q0qqqqqqqiqiiiiiiiiipapy3<11<<11<<<<35566666666777777777",
"0000q0qqqqqqqqqqqiiiiiiiiipipppa931111<1<<<,36566666667767777770",
"0000000qqqqqqiqiqiqiiiiiippppppau9111<1<<<<<55565666666676777777",
"0q0q0q0qq0qqqqqiiqiiiiippiippaaauu8<<1<<<<<<55556556666667767777",
"0000q0qqqqqqqqiqqiiiiiiiipipaauuuuw611<<<<<355555656666666676777"
};
