/* XPM */
static char *result[] = {
/* columns rows colors chars-per-pixel */
"32 32 194 2 ",
"   c #0E26D8",
".  c #0E27D9",
"X  c #0D29DB",
"o  c #0E28DA",
"O  c #0E28DB",
"+  c #0D2ADC",
"@  c #0D2BDD",
"#  c #0C2CDD",
"$  c #0C2CDE",
"%  c #0C2DDF",
"&  c #0B2FE0",
"*  c #0B2FE1",
"=  c #0C2EE0",
"-  c #0B30E1",
";  c #0B30E2",
":  c #0B31E2",
">  c #0B31E3",
",  c #0A32E3",
"<  c #0A33E4",
"1  c #0A34E5",
"2  c #0935E6",
"3  c #0936E7",
"4  c #093BE6",
"5  c #0937E8",
"6  c #073BEB",
"7  c #073CEC",
"8  c #073DED",
"9  c #073DEE",
"0  c #063EEE",
"q  c #063FEF",
"w  c #0838E8",
"e  c #0938E8",
"r  c #0838E9",
"t  c #0839E9",
"y  c #0839EA",
"u  c #083AEB",
"i  c #0655EE",
"p  c #0541F0",
"a  c #0541F1",
"s  c #0640F0",
"d  c #0542F1",
"f  c #0542F2",
"g  c #0543F3",
"h  c #0444F3",
"j  c #0347F6",
"k  c #0445F4",
"l  c #0445F5",
"z  c #0446F5",
"x  c #0348F7",
"c  c #0349F8",
"v  c #024AF8",
"b  c #024AF9",
"n  c #024BFA",
"m  c #014DFB",
"M  c #024CFB",
"N  c #014EFC",
"B  c #014EFD",
"V  c #014FFD",
"C  c #0050FE",
"Z  c #0051FF",
"A  c #0052FE",
"S  c #0052FF",
"D  c #0053FF",
"F  c #0054FF",
"G  c #0055FF",
"H  c #0056FF",
"J  c #0057FF",
"K  c #0058FF",
"L  c #0059FF",
"P  c #005AFF",
"I  c #005DFF",
"U  c #005EFF",
"Y  c #0061FF",
"T  c #0066FF",
"R  c #0369F8",
"E  c #006FFF",
"W  c #0070FE",
"Q  c #0070FF",
"!  c #0071FF",
"~  c #0075FF",
"^  c #0076FF",
"/  c #0077FF",
"(  c #0078FF",
")  c #0079FF",
"_  c #007AFF",
"`  c #007BFF",
"'  c #007CFF",
"]  c #007DFF",
"[  c #007EFF",
"{  c #007FFF",
"}  c #0080FF",
"|  c #0081FF",
" . c #0082FF",
".. c #0083FF",
"X. c #0084FF",
"o. c #0085FF",
"O. c #0086FF",
"+. c #0087FF",
"@. c #0088FF",
"#. c #0089FF",
"$. c #008AFF",
"%. c #008BFF",
"&. c #008DFF",
"*. c #008FFF",
"=. c #0092FF",
"-. c #069EFA",
";. c #0098FF",
":. c #009BFF",
">. c #009DFF",
",. c #009EFF",
"<. c #009FFF",
"1. c #00A0FF",
"2. c #00A2FF",
"3. c #00A3FF",
"4. c #00A4FF",
"5. c #00A5FF",
"6. c #00A6FF",
"7. c #00A7FF",
"8. c #00A8FF",
"9. c #00A9FF",
"0. c #00AAFF",
"q. c #00ABFF",
"w. c #01ADFE",
"e. c #00ACFF",
"r. c #00ADFF",
"t. c #00AEFF",
"y. c #00AFFF",
"u. c #07B0F9",
"i. c #00B0FF",
"p. c #00B1FF",
"a. c #00B2FF",
"s. c #00B3FF",
"d. c #04B2FC",
"f. c #00B4FF",
"g. c #00B5FF",
"h. c #00B6FF",
"j. c #00B7FF",
"k. c #01B9FE",
"l. c #00B8FF",
"z. c #00B9FF",
"x. c #00BAFF",
"c. c #00BBFF",
"v. c #01BDFE",
"b. c #00BCFF",
"n. c #00BDFF",
"m. c #00BEFF",
"M. c DeepSkyBlue",
"N. c #12CDEF",
"B. c #13CEEE",
"V. c #12CEEF",
"C. c #14CCED",
"Z. c #15CFEC",
"A. c #14CFED",
"S. c #15CFED",
"D. c #16CFEC",
"F. c #14CEEE",
"G. c #1ACFE8",
"H. c #1BD2E7",
"J. c #1DD3E5",
"K. c #1CD3E6",
"L. c #1DD4E5",
"P. c #1FD4E4",
"I. c #1ED4E5",
"U. c #16D0EB",
"Y. c #17D0EB",
"T. c #19D1E9",
"R. c #1AD2E8",
"E. c #18D1EA",
"W. c #0CC3F4",
"Q. c #0AC4F7",
"!. c #0DCBF3",
"~. c #0BCAF5",
"^. c #09C9F7",
"/. c #05C7FB",
"(. c #06C7FA",
"). c #03C2FD",
"_. c #00C0FF",
"`. c #00C1FF",
"'. c #00C2FF",
"]. c #00C3FF",
"[. c #02C5FD",
"{. c #01C4FE",
"}. c #01C5FE",
"|. c #00C4FF",
" X c #02C5FE",
".X c #04C6FC",
"XX c #09C7F8",
"oX c #08C8F8",
"OX c #11CDF0",
"+X c #10CCF1",
"@X c #10CDF1",
"#X c #22D6E1",
"$X c #20D5E3",
"%X c None",
/* pixels */
"1 5 y 7 0 p g l x b m V K r.s.f.g.h.j.l.x.c.b.n.m.M._.`.'.].|. X",
"1 3 r 6 8 s f k j c M B Z E s.f.g.h.j.l.z.x.c.b.n.m.M._.'.].|.}.",
"< 2 w u 8 q a h z c n N C D $.f.g.h.j.l.z.x.c.b.n.m.M._.`.'.].{.",
", 1 5 y 7 0 p g z x b m V S H 7.g.h.j.l.z.x.c.b.n.m.M._.`.'.].|.",
": 1 3 r 6 9 s f k j v M B Z D E g.h.j.l.z.x.c.b.n.m.M.).XX!.+X+X",
"; < 2 w u 8 q d h z c n N C D G ;.h.j.l.z.x.c.v.Q.C.T.T.Y.S.V.@X",
"- , 1 5 y 7 0 p g z x b m V S F U s.h.j.k.W.G.#X$XL.H.T.Y.Z.B.OX",
"& > 1 3 t 6 9 %X%X%X%X%X%X%X%X%X%X%X%X%X%X%X%X%X%XI.K.R.E.D.F.OX",
"= : < 2 w u 8 %X%X%X%X%X%X%X%X%X%X%X%X%X%X%X%X%X%XP.K.R.E.U.A.N.",
"% - , 2 5 y 7 %X%X%X%X%X%X%X%X%X%X%X%X%X%X%X%X%X%XP.J.H.T.Y.S.V.",
"$ & > 1 3 t 6 %X%X%X%X%X%X%X%X%X%X%X%X%X%X%X%X%X%X$XL.H.T.Y.Z.B.",
"# = : < 2 r u %X%X%X%X%X%X%X%X%X%X%X%X%X%X%X%X%X%X$XI.K.R.E.D.F.",
"@ % - , 2 5 y %X%X%X%X%X%X%X%X%X%X%X%X%X%X%X%X%X%X%X%X%X%X%X%X%X",
"+ $ & > 1 3 t %X%X%X%X%X%X%X%X%X%X%X%X%X%X%X%X%X%X%X%X%X%X%X%X%X",
"X $ = : < 2 r %X%X%X%X%X%X%X%X%X%X%X%X%X%X%X%X%X%X%X%X%X%X%X%X%X",
"O @ % - , 2 5 %X%X%X%X%X%X%X%X%X%X%X%X%X%X%X%X%X%X%X%X%X%X%X%X%X",
"o + $ * > 1 d %X%X%X%X%X%X%X%X%X%X%X%X%X%X%X%X%X%X%X%X%X%X%X%X%X",
". X $ = : 8 S %X%X%X%X%X%X%X%X%X%X%X%X%X%X%X%X%X%X%X%X%X%X%X%X%X",
"  O @ % e D H %X%X%X%X%X%X%X%X%X%X%X%X%X%X%X%X%X%X%X%X%X%X%X%X%X",
"W R i 4 A H L %X%X%X%X%X%X%X%X%X%X%X%X%X%X%X%X%X%Xs.f.g.h.h.j.%X",
"! ( _ G J P I %X%X%X%X%X%X%X%X%X%X%X%X%X%X%X%X%X%Xa.s.f.g.g.h.j.",
"Q / >.{ I U Y %X%X%X%X%X%X%X%X%X%X%X%X%X%X%X%X%X%Xp.a.s.f.g.g.h.",
"E :.p.a.y.@.T %X%X%X%X%X%X%X%X%X%X%X%X%X%X%X%X%X%Xp.p.a.s.f.g.g.",
"*.i.a.s.f.h.a.%X%X%X%X%X%X%X%X%X%X%X%X%X%X%X%X%X%Xi.i.p.a.s.f.f.",
"i.p.a.f.g.h.l.%X%X%X%X%X%X%X%X%X%X%X%X%X%X%X%X%X%Xy.i.i.p.a.s.f.",
"i.a.s.f.h.j.l.x.c.b.6.&.%.#.@.O.X. .} [ ' _ ( <.q.r.t.i.i.p.a.s.",
"p.a.f.g.h.l.z.x.b.n.m.l.=.#.+.o...| { ] ` ) / 7.9.q.r.t.y.i.p.a.",
"a.s.f.h.j.l.x.c.b.m.M._.`.1.O.X. .} [ ' _ ( ' 6.7.9.q.e.t.y.i.p.",
"a.f.g.h.l.z.x.b.n.m._.`.'.|.w...| { ] ` ) / o.4.6.7.9.q.e.t.y.i.",
"s.f.h.j.l.x.c.b.m.M._.'.].}..Xd.{ [ ' _ ( ~ *.2.4.5.7.9.0.e.t.y.",
"f.g.h.l.z.x.b.n.m._.`.'.|.[./.oXu.' _ ( ^ ~ ;.1.2.3.5.7.9.0.e.r.",
"f.h.j.l.x.c.b.m.M._.'.].}..X(.^.~.-.) / ~ ~ >.,.1.2.3.5.7.8.0.e."
};
